<svg width="218" height="44" viewBox="0 0 218 44" fill="none" xmlns="http://www.w3.org/2000/svg">
<g opacity="0.5">
<path d="M39.4441 43.5H5.15835C4.5726 43.5 3.94781 43.3838 3.40111 43.1513C2.85441 42.9189 2.38581 42.609 1.95626 42.1829C1.52672 41.7568 1.21432 41.2919 0.980019 40.7495C0.74572 40.2072 0.628571 39.5874 0.628571 39.0063V4.99369C0.628571 4.41261 0.74572 3.79279 0.980019 3.25045C1.21432 2.70811 1.52672 2.24324 1.95626 1.81712C2.38581 1.39099 2.85441 1.08108 3.40111 0.848649C3.94781 0.616217 4.5726 0.5 5.15835 0.5H39.4051C39.9908 0.5 40.6156 0.616217 41.1623 0.848649C42.8414 1.54595 43.9348 3.17297 43.9348 4.99369V39.0063C43.9348 41.4856 41.9433 43.5 39.4441 43.5ZM1.05812 36.7982H10.0786C10.5863 35.055 11.133 33.3117 11.6797 31.6072L13.2417 26.455C13.7493 24.7117 14.296 23.0072 14.8037 21.264C15.3113 19.5207 15.858 17.8162 16.4047 16.1117H16.4828L18.8258 27.1523L24.3318 12.7027C24.2537 11.8505 24.0975 10.9982 23.8632 10.1459C23.7851 9.75856 23.668 9.37117 23.4727 9.02252C23.1994 8.55766 22.887 8.17027 22.4574 7.86036C21.5593 7.16306 20.4659 6.77568 19.3334 6.81441H10.2348C7.14989 16.7703 4.10401 26.8036 1.05812 36.7982ZM43.5443 6.77568H34.4848C33.9771 8.51892 33.4304 10.2622 32.8837 11.9667C32.3761 13.7099 31.8294 15.4144 31.3217 17.1189C30.8141 18.8234 30.2283 20.5667 29.7207 22.3099C29.2131 24.0532 28.7054 25.7577 28.1587 27.5009H28.0806L25.7376 16.4604L20.2316 30.8712C20.3487 31.7234 20.4659 32.5757 20.7002 33.4279C20.7783 33.8153 20.8954 34.2027 21.0907 34.5513C21.364 35.0162 21.6764 35.4036 22.106 35.7135C23.0041 36.4108 24.0975 36.7982 25.23 36.7595H34.3676L43.5443 6.77568Z" fill="#8B8B8B"/>
<path d="M123.87 28.0048H127.267L123.831 39.2778H120.394L123.87 28.0048ZM135.351 34.5517L137.342 28.0436H140.622L137.225 39.3166H133.164L131.563 31.4913L129.181 39.3166H125.822L129.22 28.0436H132.617C132.812 28.0436 133.008 28.0823 133.164 28.1211C133.515 28.2373 133.828 28.431 134.062 28.7409C134.179 28.8958 134.257 29.0508 134.296 29.2057L135.351 34.5517ZM151.673 30.6778H148.862L146.245 39.2778H142.809L145.464 30.6778C144.84 30.6391 144.176 30.6778 143.551 30.7166C143.121 30.7553 142.731 30.8328 142.34 30.9877C142.067 31.1039 141.833 31.2202 141.599 31.4138C141.403 31.6075 141.247 31.7625 141.091 31.9562C141.052 31.9949 140.974 32.0337 140.896 32.0337C140.818 32.0337 140.778 31.9562 140.818 31.9175C141.169 31.2976 141.481 30.7166 141.794 30.2129C142.106 29.7481 142.497 29.322 142.926 28.9733C143.395 28.6247 143.902 28.3535 144.449 28.1985C145.191 28.0048 145.933 27.9274 146.675 27.9661V28.0048H152.532L151.673 30.6778ZM167.84 36.0625H165.731L164.755 39.2778H161.475L164.911 28.0048H170.652C171.042 28.0048 171.433 28.0436 171.823 28.1598C172.175 28.2373 172.526 28.431 172.838 28.6247C173.151 28.8571 173.385 29.1283 173.541 29.4382C173.737 29.7868 173.854 30.1742 173.815 30.5616C173.815 31.1427 173.737 31.7625 173.58 32.3048C173.424 32.8859 173.151 33.4283 172.838 33.9319C172.604 34.3193 172.331 34.6679 172.018 34.9778C171.706 35.2877 171.354 35.5589 170.964 35.7526L172.135 39.2391H168.933L167.84 36.0625ZM168.113 33.7382C168.348 33.7382 168.582 33.7382 168.816 33.6607C168.972 33.622 169.129 33.5832 169.285 33.5057C169.402 33.4283 169.519 33.3508 169.597 33.2346L169.871 32.9247C170.105 32.6922 170.3 32.3823 170.417 32.0724C170.534 31.7625 170.613 31.4138 170.613 31.0652C170.613 30.949 170.574 30.794 170.534 30.6778C170.495 30.5616 170.417 30.4454 170.339 30.3292C170.261 30.2129 170.144 30.1355 170.027 30.058C169.91 29.9805 169.793 29.9418 169.636 29.9418H167.528L166.395 33.6607L168.113 33.7382ZM182.835 34.5129L184.827 28.0048H188.068L184.67 39.2778H180.609L179.008 31.4913L176.626 39.3166H173.268L176.665 28.0436H180.063C180.258 28.0436 180.453 28.0823 180.609 28.1211C180.805 28.1598 180.961 28.2373 181.117 28.3535C181.273 28.4697 181.39 28.5859 181.507 28.7409C181.625 28.8958 181.703 29.0508 181.742 29.2057L182.835 34.5129ZM209.701 30.6391H206.89L204.274 39.2391H200.837L203.493 30.6391C202.868 30.6003 202.204 30.6391 201.579 30.6778C201.15 30.7166 200.759 30.794 200.369 30.949C200.095 31.0652 199.861 31.1814 199.627 31.3751C199.431 31.5688 199.275 31.7238 199.119 31.9175C199.08 31.9562 199.002 31.9949 198.924 31.9949C198.846 31.9949 198.807 31.9175 198.846 31.8787C199.197 31.2589 199.509 30.6778 199.822 30.1742C200.134 29.7093 200.525 29.2832 200.954 28.9346C201.423 28.5859 201.931 28.3147 202.477 28.1598C203.219 27.9661 203.961 27.8886 204.703 27.9274V27.9661H210.561L209.701 30.6391ZM162.92 27.9274H158.546C157.726 27.9274 156.945 27.9274 156.125 27.9274C155.735 27.9274 155.344 27.9661 154.954 28.0436C153.821 28.276 152.611 31.1039 152.611 31.1427C152.064 32.3823 151.634 33.6607 151.361 34.9778C151.244 35.4039 151.205 35.8301 151.166 36.2562C151.166 36.6823 151.205 37.0697 151.283 37.4958C151.4 37.9607 151.634 38.3868 151.947 38.7355C152.298 39.0841 152.728 39.3166 153.235 39.3553C153.626 39.394 154.055 39.4328 154.485 39.4715C155.149 39.5102 155.813 39.549 156.477 39.5102C156.984 39.5102 157.453 39.4715 157.96 39.4328C158.351 39.394 158.741 39.3553 159.132 39.3166C159.327 39.3166 159.522 39.2778 159.718 39.2391L160.538 36.4499H160.499H160.421C159.522 36.6048 158.585 36.7211 157.648 36.7211C157.179 36.7211 156.672 36.7211 156.203 36.6436C155.891 36.6048 155.617 36.5661 155.305 36.5274C155.227 36.5274 155.11 36.4886 155.071 36.4111C154.875 36.2562 154.758 36.0238 154.836 35.7913C154.875 35.5202 154.954 35.249 155.032 34.9778C155.071 34.8229 155.11 34.6679 155.149 34.5129H159.483C159.561 34.2805 159.64 34.0481 159.718 33.7769C159.796 33.5057 159.874 33.312 159.952 33.0409C160.03 32.7697 160.108 32.576 160.186 32.3048H160.03H157.336C156.867 32.3048 156.437 32.3048 155.969 32.3436C155.93 32.3436 155.93 32.3436 155.891 32.3436V32.3048C155.969 32.1499 156.047 31.9949 156.125 31.8012C156.203 31.6463 156.281 31.4526 156.359 31.2976C156.437 31.1427 156.555 30.9877 156.711 30.8328C156.828 30.7166 156.945 30.6778 157.101 30.6391C157.179 30.6391 157.257 30.6391 157.336 30.6391H162.139L162.92 27.9274ZM199.08 27.9274H194.706C193.886 27.9274 193.105 27.9274 192.285 27.9274C191.895 27.9274 191.504 27.9661 191.114 28.0436C189.981 28.276 188.771 31.1039 188.771 31.1427C188.224 32.3823 187.794 33.6607 187.521 34.9778C187.404 35.4039 187.365 35.8301 187.326 36.2562C187.326 36.6823 187.365 37.0697 187.443 37.4958C187.56 37.9607 187.794 38.3868 188.107 38.7355C188.458 39.0841 188.888 39.3166 189.396 39.3553C189.786 39.394 190.216 39.4328 190.645 39.4715C191.309 39.5102 191.973 39.549 192.637 39.5102C193.144 39.5102 193.613 39.4715 194.121 39.4328C194.511 39.394 194.902 39.3553 195.292 39.3166C195.487 39.3166 195.683 39.2778 195.878 39.2391L196.698 36.4499H196.659H196.581C195.683 36.6048 194.745 36.7211 193.808 36.7211C193.34 36.7211 192.832 36.7211 192.363 36.6436C192.051 36.6048 191.778 36.5661 191.465 36.5274C191.387 36.5274 191.27 36.4886 191.231 36.4111C191.036 36.2562 190.918 36.0238 190.997 35.7913C191.036 35.5202 191.114 35.249 191.192 34.9778C191.231 34.8229 191.27 34.6679 191.309 34.5129H195.604L195.839 33.7769C195.917 33.5445 195.995 33.312 196.073 33.0409C196.151 32.7697 196.229 32.576 196.307 32.3048H196.19H193.496C193.027 32.3048 192.598 32.3048 192.129 32.3436C192.09 32.3436 192.09 32.3436 192.051 32.3436V32.3048C192.129 32.1499 192.207 31.9949 192.285 31.8012C192.363 31.6463 192.441 31.4526 192.52 31.2976C192.598 31.1427 192.715 30.9877 192.871 30.8328C192.988 30.7166 193.105 30.6778 193.261 30.6391C193.34 30.6391 193.418 30.6391 193.496 30.6391H198.299L199.08 27.9274ZM103.408 4.83908C100.791 4.83908 98.2141 4.83908 95.5978 4.83908C94.0748 4.83908 92.591 4.83908 91.1071 4.83908C90.3651 4.83908 89.6232 4.91655 88.9203 5.07151C86.7725 5.53637 84.5076 10.8048 84.5076 10.8436C83.4923 13.1292 82.7504 15.4922 82.2037 17.9328C82.0084 18.7075 81.8913 19.4823 81.8913 20.2958C81.8522 21.0706 81.9303 21.8454 82.1256 22.5814C82.3208 23.4337 82.7504 24.2084 83.3361 24.867C83.9609 25.5256 84.82 25.9517 85.7182 26.0292C86.4601 26.1066 87.2411 26.1841 88.0221 26.2229C89.2327 26.3003 90.4823 26.3391 91.6928 26.3003C92.591 26.2616 93.5281 26.2229 94.4263 26.1841C95.1682 26.1454 95.8711 26.0292 96.6131 25.9517C96.9645 25.9129 97.355 25.8355 97.7455 25.7967C98.2532 24.0922 98.7218 22.349 99.2294 20.6445C99.1904 20.6445 99.1904 20.6445 99.1513 20.6445H99.0342C97.355 20.9544 95.6368 21.1093 93.9187 21.1481C93.0205 21.1481 92.1224 21.1093 91.2242 21.0319C90.6775 20.9931 90.0918 20.9157 89.5451 20.8382C89.3889 20.7994 89.1936 20.722 89.0765 20.6445C88.686 20.3733 88.5298 19.9084 88.6469 19.4823C88.725 18.9787 88.8812 18.4751 89.0374 18.0102C89.1155 17.7003 89.1936 17.4292 89.2717 17.1193H97.2769C97.4331 16.6544 97.5503 16.2283 97.7065 15.7634C97.8627 15.2985 97.9798 14.8724 98.136 14.4075C98.2922 13.9427 98.4094 13.5166 98.5265 13.0517H98.2141L93.2158 13.0129C92.3567 13.0129 91.5366 12.9742 90.6775 13.0517H90.5604C90.5604 13.0129 90.5604 13.0129 90.5994 12.9742C90.7556 12.703 90.9118 12.3931 91.029 12.0832C91.1852 11.7733 91.3023 11.4247 91.4585 11.1148C91.6147 10.8048 91.849 10.4949 92.0833 10.2625C92.2786 10.0688 92.5129 9.95259 92.7862 9.91385C92.9034 9.91385 93.0596 9.87511 93.1767 9.87511H102.119L103.642 4.83908H103.408ZM125.276 8.32556C125.002 7.39583 124.417 6.62106 123.597 6.11745C123.323 5.92376 123.011 5.7688 122.698 5.61385C121.683 5.14899 120.59 4.91655 119.496 4.83908C118.832 4.80034 118.169 4.7616 117.466 4.7616C116.138 4.72286 114.771 4.7616 113.444 4.87781C112.272 4.99403 111.14 5.22646 110.007 5.61385C109.148 5.88502 108.367 6.31115 107.664 6.81475C106.922 7.35709 106.337 8.09313 105.985 8.94538C105.438 10.2625 104.931 11.6184 104.462 12.9742C103.603 15.376 102.978 17.894 102.627 20.412C102.549 20.9544 102.549 21.5355 102.588 22.0778C102.705 23.085 103.213 24.0147 104.033 24.6346C104.423 24.9445 104.853 25.2157 105.36 25.3706C106.532 25.7967 107.742 26.0679 108.953 26.1066C109.695 26.1454 110.437 26.1454 110.905 26.1841C111.921 26.1841 112.975 26.1454 113.99 26.0679C114.81 25.9904 115.591 25.8742 116.411 25.758C117.31 25.6418 118.208 25.3706 118.989 24.9057C120.277 24.2472 121.293 23.1625 121.878 21.8841C122.816 19.7922 123.557 17.6229 124.182 15.376C124.69 13.4391 125.119 11.5021 125.393 9.52646C125.393 9.13907 125.393 8.71295 125.276 8.32556ZM118.715 10.6499C118.364 12.3544 117.934 14.0202 117.388 15.6472C116.919 17.1193 116.372 18.5526 115.748 19.9859C115.708 20.0634 115.669 20.1796 115.63 20.2571C115.513 20.6445 115.279 20.9931 114.927 21.2256C114.498 21.4967 114.029 21.6904 113.522 21.7679C112.858 21.8841 112.194 21.9229 111.53 21.9229C111.218 21.9616 110.905 21.9616 110.632 21.9229C110.359 21.8841 110.124 21.8066 109.89 21.6904C109.226 21.3418 108.875 20.567 109.07 19.831C109.539 17.7003 110.124 15.6472 110.827 13.594C111.179 12.5868 111.569 11.5796 111.921 10.5724C112.077 10.1463 112.389 9.75889 112.78 9.52646C113.287 9.21655 113.873 9.02286 114.459 8.98412C114.849 8.94538 115.24 8.90664 115.552 8.90664C116.216 8.90664 116.88 8.98412 117.544 9.13907C117.7 9.17781 117.856 9.25529 118.012 9.33277C118.598 9.5652 118.911 10.185 118.715 10.8048V10.6499ZM70.5278 16.9643C70.4887 16.9256 70.4497 16.8868 70.4497 16.8481L69.7468 13.2066C69.3563 11.231 68.9658 9.25529 68.6144 7.27962C68.4972 6.6598 68.1458 6.07872 67.6381 5.69133C67.0133 5.18772 66.2714 4.95529 65.4904 4.95529H59.1252C57.0165 11.9283 54.8688 18.9012 52.7601 25.8742H59.0471C59.3986 24.6346 59.7891 23.4337 60.1405 22.2328C60.492 21.0319 60.8825 19.831 61.2339 18.6301C61.5854 17.4292 61.9759 16.2283 62.3273 15.0274C62.6788 13.8265 63.0693 12.6256 63.4207 11.4247H63.4598C64.436 16.2283 65.4513 21.0319 66.4276 25.8742H74.0032C76.1119 18.9012 78.2206 11.9283 80.3293 4.99403H74.2375L70.5278 16.9643ZM146.909 7.55079C146.324 6.58232 145.425 5.84628 144.332 5.45889C143.395 5.11025 142.38 4.91655 141.364 4.95529H130.704C128.556 11.9283 126.447 18.9012 124.299 25.8742H130.43C131.055 23.8598 131.641 21.8841 132.266 19.9472H136.21C136.913 21.9229 137.576 23.8985 138.24 25.8742H144.215C143.512 23.7048 142.77 21.5355 142.067 19.3661L142.223 19.2886C142.887 18.9012 143.512 18.4364 144.059 17.894C144.84 17.1193 145.464 16.267 146.011 15.2985C147.065 13.4778 147.573 11.3472 147.456 9.25529C147.417 8.63547 147.222 8.05439 146.909 7.55079ZM139.997 14.1751C139.88 14.2913 139.763 14.4463 139.607 14.6012C139.216 15.0661 138.67 15.376 138.045 15.4922C137.615 15.5697 137.225 15.6084 136.795 15.6084H133.749H133.554C134.257 13.3229 134.96 11.0373 135.663 8.75169H139.529C140.037 8.75169 140.505 8.98412 140.818 9.37151C141.169 9.79763 141.364 10.34 141.325 10.9211C141.325 12.122 140.857 13.2841 139.997 14.1751ZM192.324 6.73727C191.778 6.11745 191.036 5.65259 190.255 5.38142C189.278 5.07151 188.263 4.91655 187.248 4.91655H175.767C173.697 11.9283 171.589 18.9012 169.519 25.8742H169.753H176.665H184.085C184.475 25.8742 184.905 25.8355 185.295 25.7193C186.115 25.4868 186.896 25.0994 187.56 24.5571C188.341 23.9373 189.005 23.24 189.552 22.4652C189.981 21.9229 190.333 21.303 190.567 20.6445C191.192 19.0175 191.739 17.3517 192.207 15.6859C192.676 14.0589 193.066 12.4319 193.34 10.7661C193.418 10.2238 193.457 9.68142 193.418 9.13907C193.34 8.24808 192.949 7.39583 192.324 6.73727ZM187.482 11.1535C187.326 12.0057 187.092 12.8193 186.818 13.6328C186.232 15.6084 185.569 17.5454 184.788 19.4436C184.631 19.831 184.436 20.2184 184.163 20.567C183.85 21.0319 183.304 21.3418 182.757 21.4193C182.367 21.4967 181.976 21.5355 181.586 21.5355C180.141 21.5355 178.735 21.5355 177.29 21.5355H177.134L180.883 8.67421H181.117C182.64 8.67421 184.163 8.67421 185.686 8.67421C186.232 8.63547 186.74 8.90664 187.013 9.33277C187.404 9.87511 187.599 10.5337 187.482 11.1535ZM217.316 4.87781C214.7 4.87781 212.123 4.87781 209.506 4.87781C208.022 4.87781 206.499 4.87781 205.015 4.87781C204.274 4.87781 203.532 4.95529 202.829 5.11025C200.681 5.53637 198.455 10.8048 198.416 10.8436C197.401 13.1292 196.62 15.531 196.112 17.9715C195.917 18.7463 195.8 19.5211 195.8 20.3346C195.761 21.1093 195.839 21.8841 196.034 22.6202C196.229 23.4724 196.659 24.2472 197.245 24.9057C197.869 25.5643 198.728 25.9904 199.627 26.0679C200.408 26.1454 201.15 26.2229 201.931 26.2616C203.141 26.3391 204.391 26.3778 205.601 26.3391C206.499 26.3003 207.437 26.2616 208.335 26.2229C209.077 26.1841 209.78 26.0679 210.521 25.9904C210.717 25.9517 210.951 25.9517 211.185 25.9129L212.786 20.722C211.146 20.9931 209.506 21.1868 207.866 21.1868C206.968 21.1868 206.07 21.1481 205.172 21.0706C204.625 21.0319 204.039 20.9544 203.493 20.8769C203.336 20.8382 203.141 20.7994 203.024 20.6832C202.633 20.412 202.477 19.9472 202.594 19.5211C202.712 19.0175 202.829 18.5138 202.985 18.049C203.063 17.7391 203.141 17.4679 203.219 17.158H211.224C211.381 16.6931 211.498 16.267 211.654 15.8021C211.81 15.3373 211.927 14.9111 212.083 14.4463C212.24 13.9814 212.357 13.594 212.474 13.0904H212.201L207.202 13.0517C206.343 13.0517 205.523 13.0129 204.664 13.0904H204.547C204.547 13.0517 204.547 13.0517 204.586 13.0129C204.742 12.7418 204.898 12.4319 205.015 12.122C205.133 11.812 205.289 11.4634 205.445 11.1535C205.601 10.8436 205.836 10.5337 206.07 10.3012C206.265 10.1075 206.499 9.99133 206.773 9.95259C206.89 9.95259 207.046 9.91385 207.163 9.91385H216.106L217.277 6.03998C217.394 5.65259 217.511 5.2652 217.629 4.87781H217.316ZM158.663 12.0832C158.819 11.7733 158.937 11.4247 159.093 11.1148C159.249 10.8048 159.483 10.4949 159.718 10.2625C159.913 10.0688 160.147 9.95259 160.421 9.91385C160.538 9.87511 160.694 9.87511 160.811 9.87511H169.753L171.276 4.83908H163.193C161.67 4.83908 160.186 4.83908 158.702 4.83908C157.96 4.83908 157.218 4.91655 156.516 5.07151C154.407 5.53637 152.142 10.8048 152.142 10.8436C151.127 13.1292 150.346 15.531 149.838 17.9715C149.643 18.7463 149.526 19.5211 149.526 20.3346C149.487 21.1093 149.565 21.8841 149.76 22.6202C149.955 23.4724 150.385 24.2472 150.97 24.9057C151.595 25.5643 152.454 25.9904 153.353 26.0679C154.134 26.1454 154.875 26.2229 155.656 26.2616C156.867 26.3391 158.117 26.3778 159.327 26.3391C160.264 26.3003 161.162 26.2616 162.061 26.2229C162.803 26.1841 163.505 26.0679 164.247 25.9904C164.638 25.9517 164.989 25.8742 165.38 25.8355L166.864 20.6832H166.786H166.669C164.989 20.9931 163.271 21.1481 161.553 21.1868C160.655 21.1868 159.757 21.1481 158.859 21.0706C158.312 21.0319 157.726 20.9544 157.179 20.8769C157.023 20.8382 156.828 20.7994 156.711 20.6832C156.32 20.412 156.164 19.9472 156.281 19.5211C156.359 19.0175 156.516 18.5138 156.672 18.049C156.75 17.7391 156.828 17.4679 156.906 17.158H164.911L165.341 15.8021C165.497 15.3373 165.614 14.9111 165.77 14.4463C165.927 13.9814 166.044 13.594 166.161 13.0904H165.888L160.889 13.0517C160.03 13.0517 159.21 13.0129 158.351 13.0904H158.234C158.234 13.0517 158.234 13.0517 158.273 13.0129C158.39 12.703 158.546 12.3931 158.663 12.0832Z" fill="#8B8B8B"/>
</g>
</svg>
