<svg width="143" height="45" viewBox="0 0 143 45" fill="none" xmlns="http://www.w3.org/2000/svg">
<g opacity="0.1">
<path d="M15.4987 16.1298C14.3307 16.1298 12.5227 14.8018 10.6187 14.8498C8.10669 14.8818 5.80269 16.3058 4.50669 18.5618C1.89869 23.0898 3.83469 29.7778 6.37869 33.4578C7.62669 35.2498 9.09869 37.2658 11.0507 37.2018C12.9227 37.1218 13.6267 35.9858 15.8987 35.9858C18.1547 35.9858 18.7947 37.2018 20.7787 37.1538C22.7947 37.1218 24.0747 35.3298 25.3067 33.5218C26.7307 31.4418 27.3227 29.4258 27.3547 29.3138C27.3067 29.2978 23.4347 27.8098 23.3867 23.3298C23.3547 19.5858 26.4427 17.7938 26.5867 17.7138C24.8267 15.1378 22.1227 14.8498 21.1787 14.7858C18.7147 14.5938 16.6507 16.1298 15.4987 16.1298ZM19.6587 12.3538C20.6987 11.1058 21.3867 9.36179 21.1947 7.63379C19.7067 7.69779 17.9147 8.62579 16.8427 9.87379C15.8827 10.9778 15.0507 12.7538 15.2747 14.4498C16.9227 14.5778 18.6187 13.6018 19.6587 12.3538Z" fill="white"/>
</g>
<g opacity="0.1">
<path d="M49.376 16H51.536C53.44 16 54.464 15.6 55.44 14.768C56.208 14.112 57.312 12.912 57.312 10.672C57.312 8.752 56.464 7.392 55.488 6.576C54.144 5.44 52.624 5.328 51.552 5.328H49.376V16ZM50.56 6.448H51.6C54.304 6.448 56.096 8.112 56.096 10.672C56.096 12.192 55.456 13.248 54.656 13.92C53.616 14.784 52.448 14.88 51.6 14.88H50.56V6.448ZM59.1974 9.36V16H60.3494V9.36H59.1974ZM58.9574 6.848C58.9574 7.296 59.3254 7.664 59.7734 7.664C60.2214 7.664 60.5894 7.296 60.5894 6.848C60.5894 6.4 60.2214 6.032 59.7734 6.032C59.3254 6.032 58.9574 6.4 58.9574 6.848ZM66.2055 10.4C65.6775 9.264 64.7335 9.2 64.3815 9.2C63.2615 9.2 62.4455 9.888 62.4455 11.056C62.4455 11.392 62.4935 11.712 62.7495 12.032C63.0535 12.4 63.5655 12.656 64.3655 13.008C64.9895 13.28 65.4375 13.488 65.4375 14.112C65.4375 14.608 65.1015 15.168 64.3495 15.168C63.5175 15.168 63.1335 14.432 63.0055 14.08L62.0135 14.496C62.5735 16.16 64.0615 16.192 64.3335 16.192C65.6135 16.192 66.6215 15.408 66.6215 14.016C66.6215 13.648 66.5575 13.296 66.2695 12.944C66.0135 12.624 65.5655 12.32 64.6055 11.92C63.8535 11.6 63.5335 11.456 63.5335 10.976C63.5335 10.464 63.9175 10.224 64.3335 10.224C64.7655 10.224 65.1015 10.512 65.2615 10.896L66.2055 10.4ZM69.3025 15.072C69.7985 15.712 70.5505 16.192 71.6225 16.192C73.6385 16.192 74.8065 14.544 74.8065 12.72C74.8065 10.928 73.6545 9.2 71.5745 9.2C71.0945 9.2 70.0865 9.312 69.3025 10.288V9.36H68.1505V19.68H69.3025V15.072ZM71.4625 15.168C70.1025 15.168 69.2385 14.064 69.2385 12.704C69.2385 11.104 70.3745 10.224 71.4465 10.224C72.5185 10.224 73.6225 11.088 73.6225 12.72C73.6225 14.048 72.8065 15.168 71.4625 15.168ZM79.6764 16.192C81.6924 16.192 83.1964 14.72 83.1964 12.704C83.1964 10.688 81.7084 9.2 79.6764 9.2C77.6444 9.2 76.1564 10.688 76.1564 12.704C76.1564 14.72 77.6604 16.192 79.6764 16.192ZM79.6764 10.224C80.8924 10.224 82.0124 11.072 82.0124 12.704C82.0124 14.32 80.8764 15.168 79.6764 15.168C78.4924 15.168 77.3404 14.336 77.3404 12.704C77.3404 11.088 78.4604 10.224 79.6764 10.224ZM84.963 16H86.115V12.528C86.115 12.048 86.147 11.264 86.595 10.736C86.931 10.336 87.363 10.224 87.763 10.224C88.275 10.224 88.627 10.416 88.851 10.704C89.123 11.056 89.155 11.52 89.155 11.92V16H90.307V11.888C90.307 11.152 90.259 10.608 89.923 10.112C89.523 9.52 88.803 9.2 88.019 9.2C86.915 9.2 86.323 9.856 86.115 10.128V9.36H84.963V16ZM92.4786 9.36V16H93.6306V9.36H92.4786ZM93.7106 5.328L92.2226 7.776L92.9746 8.112L94.9426 5.76L93.7106 5.328ZM94.8468 9.36L98.1108 16.432L101.375 9.36H100.095L98.1108 13.84L96.1268 9.36H94.8468ZM107.516 13.776C107.372 14.096 107.132 14.432 106.828 14.688C106.444 15.008 106.012 15.168 105.468 15.168C104.316 15.168 103.372 14.288 103.356 12.912H108.524C108.556 12.032 108.316 11.008 107.9 10.416C107.5 9.84 106.684 9.2 105.388 9.2C103.388 9.2 102.172 10.736 102.172 12.72C102.172 15.184 103.852 16.192 105.452 16.192C106.3 16.192 107.052 15.92 107.66 15.376C107.996 15.072 108.284 14.672 108.476 14.304L107.516 13.776ZM103.436 11.952C103.612 10.96 104.412 10.224 105.388 10.224C106.364 10.224 107.148 10.912 107.34 11.952H103.436ZM110.291 4.336V16H111.443V4.336H110.291ZM117.354 16H118.506V12.528C118.506 12.048 118.538 11.264 118.986 10.736C119.322 10.336 119.754 10.224 120.154 10.224C120.666 10.224 121.018 10.416 121.242 10.704C121.514 11.056 121.546 11.52 121.546 11.92V16H122.698V11.888C122.698 11.152 122.65 10.608 122.314 10.112C121.914 9.52 121.194 9.2 120.41 9.2C119.306 9.2 118.714 9.856 118.506 10.128V9.36H117.354V16ZM129.957 10.304C129.653 9.904 128.965 9.2 127.685 9.2C125.989 9.2 124.453 10.384 124.453 12.672C124.453 15.008 126.005 16.192 127.685 16.192C128.853 16.192 129.573 15.568 129.957 15.072V16H131.109V9.36H129.957V10.304ZM127.813 10.224C128.837 10.224 130.021 10.976 130.021 12.688C130.021 14 129.221 15.168 127.813 15.168C126.437 15.168 125.637 14.096 125.637 12.672C125.637 11.056 126.677 10.224 127.813 10.224Z" fill="white"/>
<path d="M58.84 39H61.04L54.72 24.88L48.08 39H50.28L51.74 35.78H57.44L58.84 39ZM52.58 33.86L54.64 29.34L56.62 33.86H52.58ZM64.325 38.02C65.205 39.1 66.385 39.26 66.845 39.26C68.845 39.26 70.925 37.58 70.925 34.74C70.925 32.06 69.045 30.36 66.825 30.36C65.985 30.36 65.045 30.64 64.325 31.5V30.58H62.365V43.58H64.325V38.02ZM66.585 32.12C68.005 32.12 68.925 33.32 68.925 34.82C68.925 36.28 68.005 37.5 66.585 37.5C65.345 37.5 64.205 36.6 64.205 34.84C64.205 33 65.345 32.12 66.585 32.12ZM74.9305 38.02C75.8105 39.1 76.9905 39.26 77.4505 39.26C79.4505 39.26 81.5305 37.58 81.5305 34.74C81.5305 32.06 79.6505 30.36 77.4305 30.36C76.5905 30.36 75.6505 30.64 74.9305 31.5V30.58H72.9705V43.58H74.9305V38.02ZM77.1905 32.12C78.6105 32.12 79.5305 33.32 79.5305 34.82C79.5305 36.28 78.6105 37.5 77.1905 37.5C75.9505 37.5 74.8105 36.6 74.8105 34.84C74.8105 33 75.9505 32.12 77.1905 32.12ZM83.5759 24.42V39H85.5359V24.42H83.5759ZM93.9095 36.16C93.7295 36.48 93.4695 36.82 93.1295 37.08C92.7295 37.38 92.3295 37.5 91.7895 37.5C91.3095 37.5 90.7495 37.42 90.2895 36.96C89.8695 36.54 89.6095 35.86 89.5695 35.26H95.6095V35.02C95.6095 34.14 95.5095 32.58 94.4295 31.46C93.9295 30.94 93.0695 30.36 91.7295 30.36C90.5295 30.36 89.6095 30.8 88.9095 31.5C88.0295 32.4 87.5695 33.66 87.5695 34.96C87.5695 36.22 88.0095 37.38 88.8095 38.18C89.6095 38.98 90.5295 39.26 91.6495 39.26C92.5495 39.26 93.4495 39.06 94.1295 38.62C94.6695 38.28 95.1895 37.72 95.5495 37.08L93.9095 36.16ZM89.7095 33.66C89.8095 33.24 90.0295 32.84 90.3095 32.58C90.5695 32.32 91.0095 32.04 91.6895 32.04C92.3295 32.04 92.7495 32.28 93.0095 32.52C93.3095 32.8 93.5295 33.2 93.6095 33.66H89.7095ZM110.086 27.66C109.806 27.1 109.426 26.64 109.066 26.32C108.646 25.96 107.826 25.42 106.386 25.42C103.886 25.42 102.486 27.14 102.486 28.94C102.486 30.94 104.106 31.86 105.206 32.32L106.486 32.86C107.366 33.22 108.406 33.78 108.406 35.14C108.406 36.48 107.446 37.38 106.206 37.38C105.406 37.38 104.846 37.06 104.466 36.58C104.146 36.16 103.906 35.54 103.906 34.88L101.886 35.32C101.966 36.24 102.286 37.12 103.006 37.92C103.686 38.68 104.606 39.26 106.146 39.26C108.646 39.26 110.446 37.52 110.446 34.98C110.446 33.46 109.766 32.06 107.306 31.06L105.966 30.52C104.666 30 104.526 29.3 104.526 28.9C104.526 28.04 105.166 27.3 106.406 27.3C106.986 27.3 107.426 27.44 107.846 27.78C108.146 28.04 108.326 28.32 108.446 28.62L110.086 27.66ZM116.158 32.38V30.58H114.658V27.5H112.698V30.58H111.878V32.38H112.698V39H114.658V32.38H116.158ZM121.542 30.36C119.002 30.36 117.042 32.2 117.042 34.8C117.042 37.38 119.002 39.26 121.542 39.26C124.082 39.26 126.042 37.38 126.042 34.8C126.042 32.2 124.082 30.36 121.542 30.36ZM121.542 37.5C120.002 37.5 119.042 36.44 119.042 34.82C119.042 32.9 120.302 32.12 121.542 32.12C122.782 32.12 124.042 32.9 124.042 34.82C124.042 36.44 123.082 37.5 121.542 37.5ZM128.088 39H130.048V34.64C130.048 34.08 130.048 33.28 130.588 32.7C130.968 32.3 131.388 32.24 131.808 32.24C132.008 32.24 132.368 32.26 132.808 32.54L133.608 30.76C133.068 30.44 132.548 30.36 132.068 30.36C131.628 30.36 131.248 30.42 130.868 30.64C130.588 30.8 130.268 31.08 130.048 31.34V30.58H128.088V39ZM140.003 36.16C139.823 36.48 139.563 36.82 139.223 37.08C138.823 37.38 138.423 37.5 137.883 37.5C137.403 37.5 136.843 37.42 136.383 36.96C135.963 36.54 135.703 35.86 135.663 35.26H141.703V35.02C141.703 34.14 141.603 32.58 140.523 31.46C140.023 30.94 139.163 30.36 137.823 30.36C136.623 30.36 135.703 30.8 135.003 31.5C134.123 32.4 133.663 33.66 133.663 34.96C133.663 36.22 134.103 37.38 134.903 38.18C135.703 38.98 136.623 39.26 137.743 39.26C138.643 39.26 139.543 39.06 140.223 38.62C140.763 38.28 141.283 37.72 141.643 37.08L140.003 36.16ZM135.803 33.66C135.903 33.24 136.123 32.84 136.403 32.58C136.663 32.32 137.103 32.04 137.783 32.04C138.423 32.04 138.843 32.28 139.103 32.52C139.403 32.8 139.623 33.2 139.703 33.66H135.803Z" fill="white"/>
</g>
<path d="M49.2011 17.328H43.6651V28H49.2011V26.88H44.8491V22.736H49.0731V21.616H44.8491V18.448H49.2011V17.328ZM51.0958 28H52.2478V24.384C52.2478 23.584 52.3918 22.224 53.7038 22.224C54.9198 22.224 54.9038 23.6 54.9038 24.064V28H56.0558V24.304C56.0558 23.504 56.1998 22.224 57.5278 22.224C58.6158 22.224 58.7118 23.216 58.7118 23.968V28H59.8638V23.792C59.8638 22.848 59.6718 21.2 57.7038 21.2C57.2558 21.2 56.3438 21.264 55.7038 22.272C55.5758 22.048 55.0958 21.2 53.8958 21.2C53.1918 21.2 52.6158 21.52 52.2478 22.064V21.36H51.0958V28ZM66.0713 17.328V28H68.7273C69.4633 28 70.4393 27.968 71.2873 27.296C71.8633 26.848 72.3753 26.016 72.3753 24.992C72.3753 23.968 71.8313 22.672 70.3433 22.304C71.2873 21.664 71.3993 20.736 71.3993 20.208C71.3993 18.912 70.7753 18.256 70.4393 18C69.6553 17.376 68.5833 17.328 67.9913 17.328H66.0713ZM67.2553 18.448H68.1833C68.5193 18.448 70.2473 18.48 70.2473 20.24C70.2473 21.888 68.7753 22.016 68.1513 22.016H67.2553V18.448ZM67.2553 23.072H68.4713C69.3193 23.072 69.8793 23.168 70.2793 23.392C70.6953 23.616 71.1913 24.112 71.1913 24.96C71.1913 25.6 70.9033 26.128 70.4873 26.432C69.9753 26.832 69.3033 26.88 68.6153 26.88H67.2553V23.072ZM74.2677 28H75.4197V24.496C75.4197 23.408 75.6117 22.96 75.8037 22.704C75.9797 22.48 76.2677 22.288 76.7317 22.288C76.9077 22.288 77.1477 22.336 77.4037 22.512L77.9477 21.472C77.6597 21.328 77.2757 21.2 76.9237 21.2C76.0277 21.2 75.5317 21.904 75.4197 22.08V21.36H74.2677V28ZM83.5394 25.776C83.3954 26.096 83.1554 26.432 82.8514 26.688C82.4674 27.008 82.0354 27.168 81.4914 27.168C80.3394 27.168 79.3954 26.288 79.3794 24.912H84.5474C84.5794 24.032 84.3394 23.008 83.9234 22.416C83.5234 21.84 82.7074 21.2 81.4114 21.2C79.4114 21.2 78.1954 22.736 78.1954 24.72C78.1954 27.184 79.8754 28.192 81.4754 28.192C82.3234 28.192 83.0754 27.92 83.6834 27.376C84.0194 27.072 84.3074 26.672 84.4994 26.304L83.5394 25.776ZM79.4594 23.952C79.6354 22.96 80.4354 22.224 81.4114 22.224C82.3874 22.224 83.1714 22.912 83.3634 23.952H79.4594ZM85.3546 21.36L88.6186 28.432L91.8826 21.36H90.6026L88.6186 25.84L86.6346 21.36H85.3546ZM98.0238 25.776C97.8798 26.096 97.6398 26.432 97.3358 26.688C96.9518 27.008 96.5198 27.168 95.9758 27.168C94.8238 27.168 93.8798 26.288 93.8638 24.912H99.0318C99.0638 24.032 98.8238 23.008 98.4078 22.416C98.0078 21.84 97.1918 21.2 95.8958 21.2C93.8958 21.2 92.6798 22.736 92.6798 24.72C92.6798 27.184 94.3598 28.192 95.9598 28.192C96.8078 28.192 97.5598 27.92 98.1678 27.376C98.5038 27.072 98.7918 26.672 98.9838 26.304L98.0238 25.776ZM93.9438 23.952C94.1198 22.96 94.9198 22.224 95.8958 22.224C96.8718 22.224 97.6558 22.912 97.8478 23.952H93.9438Z" fill="white"/>
</svg>
