<svg width="143" height="45" viewBox="0 0 143 45" fill="none" xmlns="http://www.w3.org/2000/svg">
<g opacity="0.1">
<path d="M15.4987 16.1293C14.3307 16.1293 12.5227 14.8013 10.6187 14.8493C8.10669 14.8813 5.80269 16.3053 4.50669 18.5613C1.89869 23.0893 3.83469 29.7773 6.37869 33.4573C7.62669 35.2493 9.09869 37.2653 11.0507 37.2013C12.9227 37.1213 13.6267 35.9853 15.8987 35.9853C18.1547 35.9853 18.7947 37.2013 20.7787 37.1533C22.7947 37.1213 24.0747 35.3293 25.3067 33.5213C26.7307 31.4413 27.3227 29.4253 27.3547 29.3133C27.3067 29.2973 23.4347 27.8093 23.3867 23.3293C23.3547 19.5853 26.4427 17.7933 26.5867 17.7133C24.8267 15.1373 22.1227 14.8493 21.1787 14.7853C18.7147 14.5933 16.6507 16.1293 15.4987 16.1293V16.1293ZM19.6587 12.3533C20.6987 11.1053 21.3867 9.3613 21.1947 7.6333C19.7067 7.6973 17.9147 8.6253 16.8427 9.8733C15.8827 10.9773 15.0507 12.7533 15.2747 14.4493C16.9227 14.5773 18.6187 13.6013 19.6587 12.3533V12.3533Z" fill="white"/>
</g>
<g opacity="0.1">
<path d="M49.376 16H51.536C53.44 16 54.464 15.6 55.44 14.768C56.208 14.112 57.312 12.912 57.312 10.672C57.312 8.752 56.464 7.392 55.488 6.576C54.144 5.44 52.624 5.328 51.552 5.328H49.376V16ZM50.56 6.448H51.6C54.304 6.448 56.096 8.112 56.096 10.672C56.096 12.192 55.456 13.248 54.656 13.92C53.616 14.784 52.448 14.88 51.6 14.88H50.56V6.448ZM59.1974 9.36V16H60.3494V9.36H59.1974ZM58.9574 6.848C58.9574 7.296 59.3254 7.664 59.7734 7.664C60.2214 7.664 60.5894 7.296 60.5894 6.848C60.5894 6.4 60.2214 6.032 59.7734 6.032C59.3254 6.032 58.9574 6.4 58.9574 6.848ZM66.2055 10.4C65.6775 9.264 64.7335 9.2 64.3815 9.2C63.2615 9.2 62.4455 9.888 62.4455 11.056C62.4455 11.392 62.4935 11.712 62.7495 12.032C63.0535 12.4 63.5655 12.656 64.3655 13.008C64.9895 13.28 65.4375 13.488 65.4375 14.112C65.4375 14.608 65.1015 15.168 64.3495 15.168C63.5175 15.168 63.1335 14.432 63.0055 14.08L62.0135 14.496C62.5735 16.16 64.0615 16.192 64.3335 16.192C65.6135 16.192 66.6215 15.408 66.6215 14.016C66.6215 13.648 66.5575 13.296 66.2695 12.944C66.0135 12.624 65.5655 12.32 64.6055 11.92C63.8535 11.6 63.5335 11.456 63.5335 10.976C63.5335 10.464 63.9175 10.224 64.3335 10.224C64.7655 10.224 65.1015 10.512 65.2615 10.896L66.2055 10.4ZM69.3025 15.072C69.7985 15.712 70.5505 16.192 71.6225 16.192C73.6385 16.192 74.8065 14.544 74.8065 12.72C74.8065 10.928 73.6545 9.2 71.5745 9.2C71.0945 9.2 70.0865 9.312 69.3025 10.288V9.36H68.1505V19.68H69.3025V15.072ZM71.4625 15.168C70.1025 15.168 69.2385 14.064 69.2385 12.704C69.2385 11.104 70.3745 10.224 71.4465 10.224C72.5185 10.224 73.6225 11.088 73.6225 12.72C73.6225 14.048 72.8065 15.168 71.4625 15.168ZM79.6764 16.192C81.6924 16.192 83.1964 14.72 83.1964 12.704C83.1964 10.688 81.7084 9.2 79.6764 9.2C77.6444 9.2 76.1564 10.688 76.1564 12.704C76.1564 14.72 77.6604 16.192 79.6764 16.192ZM79.6764 10.224C80.8924 10.224 82.0124 11.072 82.0124 12.704C82.0124 14.32 80.8764 15.168 79.6764 15.168C78.4924 15.168 77.3404 14.336 77.3404 12.704C77.3404 11.088 78.4604 10.224 79.6764 10.224ZM84.963 16H86.115V12.528C86.115 12.048 86.147 11.264 86.595 10.736C86.931 10.336 87.363 10.224 87.763 10.224C88.275 10.224 88.627 10.416 88.851 10.704C89.123 11.056 89.155 11.52 89.155 11.92V16H90.307V11.888C90.307 11.152 90.259 10.608 89.923 10.112C89.523 9.52 88.803 9.2 88.019 9.2C86.915 9.2 86.323 9.856 86.115 10.128V9.36H84.963V16ZM92.4786 9.36V16H93.6306V9.36H92.4786ZM93.7106 5.328L92.2226 7.776L92.9746 8.112L94.9426 5.76L93.7106 5.328ZM94.8468 9.36L98.1108 16.432L101.375 9.36H100.095L98.1108 13.84L96.1268 9.36H94.8468ZM107.516 13.776C107.372 14.096 107.132 14.432 106.828 14.688C106.444 15.008 106.012 15.168 105.468 15.168C104.316 15.168 103.372 14.288 103.356 12.912H108.524C108.556 12.032 108.316 11.008 107.9 10.416C107.5 9.84 106.684 9.2 105.388 9.2C103.388 9.2 102.172 10.736 102.172 12.72C102.172 15.184 103.852 16.192 105.452 16.192C106.3 16.192 107.052 15.92 107.66 15.376C107.996 15.072 108.284 14.672 108.476 14.304L107.516 13.776ZM103.436 11.952C103.612 10.96 104.412 10.224 105.388 10.224C106.364 10.224 107.148 10.912 107.34 11.952H103.436ZM110.291 4.336V16H111.443V4.336H110.291ZM117.354 16H118.506V12.528C118.506 12.048 118.538 11.264 118.986 10.736C119.322 10.336 119.754 10.224 120.154 10.224C120.666 10.224 121.018 10.416 121.242 10.704C121.514 11.056 121.546 11.52 121.546 11.92V16H122.698V11.888C122.698 11.152 122.65 10.608 122.314 10.112C121.914 9.52 121.194 9.2 120.41 9.2C119.306 9.2 118.714 9.856 118.506 10.128V9.36H117.354V16ZM129.957 10.304C129.653 9.904 128.965 9.2 127.685 9.2C125.989 9.2 124.453 10.384 124.453 12.672C124.453 15.008 126.005 16.192 127.685 16.192C128.853 16.192 129.573 15.568 129.957 15.072V16H131.109V9.36H129.957V10.304ZM127.813 10.224C128.837 10.224 130.021 10.976 130.021 12.688C130.021 14 129.221 15.168 127.813 15.168C126.437 15.168 125.637 14.096 125.637 12.672C125.637 11.056 126.677 10.224 127.813 10.224Z" fill="white"/>
<path d="M58.84 39H61.04L54.72 24.88L48.08 39H50.28L51.74 35.78H57.44L58.84 39ZM52.58 33.86L54.64 29.34L56.62 33.86H52.58ZM64.325 38.02C65.205 39.1 66.385 39.26 66.845 39.26C68.845 39.26 70.925 37.58 70.925 34.74C70.925 32.06 69.045 30.36 66.825 30.36C65.985 30.36 65.045 30.64 64.325 31.5V30.58H62.365V43.58H64.325V38.02ZM66.585 32.12C68.005 32.12 68.925 33.32 68.925 34.82C68.925 36.28 68.005 37.5 66.585 37.5C65.345 37.5 64.205 36.6 64.205 34.84C64.205 33 65.345 32.12 66.585 32.12ZM74.9305 38.02C75.8105 39.1 76.9905 39.26 77.4505 39.26C79.4505 39.26 81.5305 37.58 81.5305 34.74C81.5305 32.06 79.6505 30.36 77.4305 30.36C76.5905 30.36 75.6505 30.64 74.9305 31.5V30.58H72.9705V43.58H74.9305V38.02ZM77.1905 32.12C78.6105 32.12 79.5305 33.32 79.5305 34.82C79.5305 36.28 78.6105 37.5 77.1905 37.5C75.9505 37.5 74.8105 36.6 74.8105 34.84C74.8105 33 75.9505 32.12 77.1905 32.12ZM83.5759 24.42V39H85.5359V24.42H83.5759ZM93.9095 36.16C93.7295 36.48 93.4695 36.82 93.1295 37.08C92.7295 37.38 92.3295 37.5 91.7895 37.5C91.3095 37.5 90.7495 37.42 90.2895 36.96C89.8695 36.54 89.6095 35.86 89.5695 35.26H95.6095V35.02C95.6095 34.14 95.5095 32.58 94.4295 31.46C93.9295 30.94 93.0695 30.36 91.7295 30.36C90.5295 30.36 89.6095 30.8 88.9095 31.5C88.0295 32.4 87.5695 33.66 87.5695 34.96C87.5695 36.22 88.0095 37.38 88.8095 38.18C89.6095 38.98 90.5295 39.26 91.6495 39.26C92.5495 39.26 93.4495 39.06 94.1295 38.62C94.6695 38.28 95.1895 37.72 95.5495 37.08L93.9095 36.16ZM89.7095 33.66C89.8095 33.24 90.0295 32.84 90.3095 32.58C90.5695 32.32 91.0095 32.04 91.6895 32.04C92.3295 32.04 92.7495 32.28 93.0095 32.52C93.3095 32.8 93.5295 33.2 93.6095 33.66H89.7095ZM110.086 27.66C109.806 27.1 109.426 26.64 109.066 26.32C108.646 25.96 107.826 25.42 106.386 25.42C103.886 25.42 102.486 27.14 102.486 28.94C102.486 30.94 104.106 31.86 105.206 32.32L106.486 32.86C107.366 33.22 108.406 33.78 108.406 35.14C108.406 36.48 107.446 37.38 106.206 37.38C105.406 37.38 104.846 37.06 104.466 36.58C104.146 36.16 103.906 35.54 103.906 34.88L101.886 35.32C101.966 36.24 102.286 37.12 103.006 37.92C103.686 38.68 104.606 39.26 106.146 39.26C108.646 39.26 110.446 37.52 110.446 34.98C110.446 33.46 109.766 32.06 107.306 31.06L105.966 30.52C104.666 30 104.526 29.3 104.526 28.9C104.526 28.04 105.166 27.3 106.406 27.3C106.986 27.3 107.426 27.44 107.846 27.78C108.146 28.04 108.326 28.32 108.446 28.62L110.086 27.66ZM116.158 32.38V30.58H114.658V27.5H112.698V30.58H111.878V32.38H112.698V39H114.658V32.38H116.158ZM121.542 30.36C119.002 30.36 117.042 32.2 117.042 34.8C117.042 37.38 119.002 39.26 121.542 39.26C124.082 39.26 126.042 37.38 126.042 34.8C126.042 32.2 124.082 30.36 121.542 30.36ZM121.542 37.5C120.002 37.5 119.042 36.44 119.042 34.82C119.042 32.9 120.302 32.12 121.542 32.12C122.782 32.12 124.042 32.9 124.042 34.82C124.042 36.44 123.082 37.5 121.542 37.5ZM128.088 39H130.048V34.64C130.048 34.08 130.048 33.28 130.588 32.7C130.968 32.3 131.388 32.24 131.808 32.24C132.008 32.24 132.368 32.26 132.808 32.54L133.608 30.76C133.068 30.44 132.548 30.36 132.068 30.36C131.628 30.36 131.248 30.42 130.868 30.64C130.588 30.8 130.268 31.08 130.048 31.34V30.58H128.088V39ZM140.003 36.16C139.823 36.48 139.563 36.82 139.223 37.08C138.823 37.38 138.423 37.5 137.883 37.5C137.403 37.5 136.843 37.42 136.383 36.96C135.963 36.54 135.703 35.86 135.663 35.26H141.703V35.02C141.703 34.14 141.603 32.58 140.523 31.46C140.023 30.94 139.163 30.36 137.823 30.36C136.623 30.36 135.703 30.8 135.003 31.5C134.123 32.4 133.663 33.66 133.663 34.96C133.663 36.22 134.103 37.38 134.903 38.18C135.703 38.98 136.623 39.26 137.743 39.26C138.643 39.26 139.543 39.06 140.223 38.62C140.763 38.28 141.283 37.72 141.643 37.08L140.003 36.16ZM135.803 33.66C135.903 33.24 136.123 32.84 136.403 32.58C136.663 32.32 137.103 32.04 137.783 32.04C138.423 32.04 138.843 32.28 139.103 32.52C139.403 32.8 139.623 33.2 139.703 33.66H135.803Z" fill="white"/>
</g>
</svg>
