<svg width="172" height="20" viewBox="0 0 172 20" fill="none" xmlns="http://www.w3.org/2000/svg">
<path d="M28.9572 0.339844H33.1163L26.2496 20.0001H22.0905L28.9572 0.339844Z" fill="#2E54CE"/>
<path d="M23.2557 0.339844H27.4147L20.5545 19.974H16.3954L23.2557 0.339844Z" fill="#2E54CE"/>
<path d="M17.5606 0.339844H21.7197L14.8529 19.974H10.6938L17.5606 0.339844Z" fill="#2E54CE"/>
<path d="M10.3684 8.46134L4.21115 10.5914L10.3684 12.7214V16.1908L0 12.4078V8.76843L10.3684 4.98535V8.46134Z" fill="white"/>
<path d="M32.9602 4.97949L43.3286 8.76257V12.4019L32.9602 16.185V12.7025L39.1175 10.5724L32.9602 8.44241V4.97949Z" fill="white"/>
<path d="M57.9796 4.60001H53.2412V1.12402H67.0528V4.59348H62.3404V16.6026H57.9796V4.60001Z" fill="white"/>
<path d="M81.1898 9.74872V16.6027H77.0047V10.4348C77.0047 8.70985 76.2562 7.97806 75.0456 7.97806C73.7048 7.97806 72.6634 8.82092 72.6634 10.8072V16.6027H68.4783V0.196289H72.6634V5.72389C73.5876 4.86143 74.8438 4.41713 76.2562 4.41713C79.055 4.42367 81.1898 6.03752 81.1898 9.74872Z" fill="white"/>
<path d="M91.8054 4.42383V8.20037C91.493 8.16117 91.174 8.13503 90.8551 8.13503C89.1563 8.13503 87.9913 8.9975 87.9913 11.0949V16.6029H83.8062V4.61984H87.796V6.05728C88.6617 4.97267 90.048 4.42383 91.8054 4.42383Z" fill="white"/>
<path d="M105.552 11.6764H96.876C97.2274 12.8916 98.2623 13.5973 99.8049 13.5973C100.97 13.5973 101.744 13.2641 102.558 12.5584L104.758 14.8583C103.613 16.139 101.94 16.8054 99.6682 16.8054C95.418 16.8054 92.6648 14.1723 92.6648 10.5917C92.6648 6.98508 95.4636 4.42383 99.2256 4.42383C102.747 4.42383 105.611 6.67799 105.611 10.6375C105.617 10.9446 105.572 11.3431 105.552 11.6764ZM96.8044 9.4614H101.692C101.471 8.20037 100.547 7.40325 99.2451 7.40325C97.9434 7.40325 97.0517 8.20037 96.8044 9.4614Z" fill="white"/>
<path d="M119.689 11.6764H111.013C111.364 12.8916 112.399 13.5973 113.942 13.5973C115.107 13.5973 115.881 13.2641 116.695 12.5584L118.895 14.8583C117.749 16.139 116.076 16.8054 113.805 16.8054C109.555 16.8054 106.802 14.1723 106.802 10.5917C106.802 6.98508 109.6 4.42383 113.362 4.42383C116.884 4.42383 119.747 6.67799 119.747 10.6375C119.76 10.9446 119.715 11.3431 119.689 11.6764ZM110.948 9.4614H115.836C115.614 8.20037 114.69 7.40325 113.388 7.40325C112.087 7.40325 111.188 8.20037 110.948 9.4614Z" fill="white"/>
<path d="M127.161 15.564L128.417 12.6891C129.517 13.3752 131.125 13.7933 132.583 13.7933C133.995 13.7933 134.457 13.4862 134.457 12.9766C134.457 11.3627 127.408 13.1987 127.408 8.40292C127.408 6.14876 129.478 4.42383 133.221 4.42383C134.893 4.42383 136.742 4.77665 137.933 5.4431L136.677 8.29838C135.629 7.71034 134.444 7.40978 133.24 7.41631C131.828 7.41631 131.326 7.81488 131.326 8.25918C131.326 9.91877 138.356 8.1285 138.356 12.8786C138.356 15.087 136.332 16.8119 132.452 16.8119C130.415 16.8054 128.326 16.2958 127.161 15.564Z" fill="white"/>
<path d="M139.404 10.5917C139.404 6.98508 142.242 4.42383 146.147 4.42383C150.091 4.42383 152.883 6.99162 152.883 10.5917C152.883 14.218 150.085 16.8054 146.147 16.8054C142.242 16.8054 139.404 14.218 139.404 10.5917ZM148.653 10.5917C148.653 8.77535 147.572 7.76261 146.14 7.76261C144.728 7.76261 143.628 8.78188 143.628 10.5917C143.628 12.4277 144.728 13.4666 146.14 13.4666C147.572 13.4666 148.653 12.4277 148.653 10.5917Z" fill="white"/>
<path d="M159.379 5.0637H162.224V8.19993H159.49V16.6024H155.305V8.19993H153.567V5.0637H155.305V4.75662C155.305 1.88174 157.088 0 160.284 0C161.299 0 162.373 0.196014 163.057 0.620712L162.022 3.58053C161.638 3.35838 161.208 3.24077 160.766 3.2277C159.887 3.2277 159.379 3.73734 159.379 4.79582V5.0637Z" fill="white"/>
<path d="M172 16.1191C171.271 16.583 170.19 16.8052 169.09 16.8052C166.031 16.8052 164.248 15.3024 164.248 12.225V8.20012H162.51V5.06389H164.248V1.94727H168.433V5.06389H171.167V8.20012H168.433V12.1857C168.433 13.0678 168.941 13.5578 169.689 13.5578C170.145 13.5644 170.587 13.4337 170.965 13.1789L172 16.1191Z" fill="white"/>
</svg>
