<svg width="148" height="45" viewBox="0 0 148 45" fill="none" xmlns="http://www.w3.org/2000/svg">
<path d="M4.812 8.9187L18.3893 22.5L4.81334 36.0814C4.57192 35.9799 4.36591 35.8093 4.22119 35.591C4.07647 35.3728 3.99952 35.1166 4 34.8547V10.1454C4.0001 9.8838 4.07714 9.62803 4.22152 9.40992C4.36591 9.1918 4.57125 9.02098 4.812 8.9187ZM19.332 23.4427L22.4013 26.512L7.81867 34.956L19.332 23.4427ZM23.5973 19.1787L27.34 21.3467C27.5421 21.4639 27.7098 21.6321 27.8264 21.8345C27.9429 22.037 28.0043 22.2664 28.0043 22.5C28.0043 22.7336 27.9429 22.9631 27.8264 23.1655C27.7098 23.3679 27.5421 23.5362 27.34 23.6534L23.596 25.8214L20.2747 22.5L23.5973 19.1787ZM7.81867 10.044L22.4027 18.4867L19.332 21.5574L7.81867 10.044Z" fill="white"/>
<path d="M49.376 16H51.536C53.44 16 54.464 15.6 55.44 14.768C56.208 14.112 57.312 12.912 57.312 10.672C57.312 8.752 56.464 7.392 55.488 6.576C54.144 5.44 52.624 5.328 51.552 5.328H49.376V16ZM50.56 6.448H51.6C54.304 6.448 56.096 8.112 56.096 10.672C56.096 12.192 55.456 13.248 54.656 13.92C53.616 14.784 52.448 14.88 51.6 14.88H50.56V6.448ZM59.1974 9.36V16H60.3494V9.36H59.1974ZM58.9574 6.848C58.9574 7.296 59.3254 7.664 59.7734 7.664C60.2214 7.664 60.5894 7.296 60.5894 6.848C60.5894 6.4 60.2214 6.032 59.7734 6.032C59.3254 6.032 58.9574 6.4 58.9574 6.848ZM66.2055 10.4C65.6775 9.264 64.7335 9.2 64.3815 9.2C63.2615 9.2 62.4455 9.888 62.4455 11.056C62.4455 11.392 62.4935 11.712 62.7495 12.032C63.0535 12.4 63.5655 12.656 64.3655 13.008C64.9895 13.28 65.4375 13.488 65.4375 14.112C65.4375 14.608 65.1015 15.168 64.3495 15.168C63.5175 15.168 63.1335 14.432 63.0055 14.08L62.0135 14.496C62.5735 16.16 64.0615 16.192 64.3335 16.192C65.6135 16.192 66.6215 15.408 66.6215 14.016C66.6215 13.648 66.5575 13.296 66.2695 12.944C66.0135 12.624 65.5655 12.32 64.6055 11.92C63.8535 11.6 63.5335 11.456 63.5335 10.976C63.5335 10.464 63.9175 10.224 64.3335 10.224C64.7655 10.224 65.1015 10.512 65.2615 10.896L66.2055 10.4ZM69.3025 15.072C69.7985 15.712 70.5505 16.192 71.6225 16.192C73.6385 16.192 74.8065 14.544 74.8065 12.72C74.8065 10.928 73.6545 9.2 71.5745 9.2C71.0945 9.2 70.0865 9.312 69.3025 10.288V9.36H68.1505V19.68H69.3025V15.072ZM71.4625 15.168C70.1025 15.168 69.2385 14.064 69.2385 12.704C69.2385 11.104 70.3745 10.224 71.4465 10.224C72.5185 10.224 73.6225 11.088 73.6225 12.72C73.6225 14.048 72.8065 15.168 71.4625 15.168ZM79.6764 16.192C81.6924 16.192 83.1964 14.72 83.1964 12.704C83.1964 10.688 81.7084 9.2 79.6764 9.2C77.6444 9.2 76.1564 10.688 76.1564 12.704C76.1564 14.72 77.6604 16.192 79.6764 16.192ZM79.6764 10.224C80.8924 10.224 82.0124 11.072 82.0124 12.704C82.0124 14.32 80.8764 15.168 79.6764 15.168C78.4924 15.168 77.3404 14.336 77.3404 12.704C77.3404 11.088 78.4604 10.224 79.6764 10.224ZM84.963 16H86.115V12.528C86.115 12.048 86.147 11.264 86.595 10.736C86.931 10.336 87.363 10.224 87.763 10.224C88.275 10.224 88.627 10.416 88.851 10.704C89.123 11.056 89.155 11.52 89.155 11.92V16H90.307V11.888C90.307 11.152 90.259 10.608 89.923 10.112C89.523 9.52 88.803 9.2 88.019 9.2C86.915 9.2 86.323 9.856 86.115 10.128V9.36H84.963V16ZM92.4786 9.36V16H93.6306V9.36H92.4786ZM93.7106 5.328L92.2226 7.776L92.9746 8.112L94.9426 5.76L93.7106 5.328ZM94.8468 9.36L98.1108 16.432L101.375 9.36H100.095L98.1108 13.84L96.1268 9.36H94.8468ZM107.516 13.776C107.372 14.096 107.132 14.432 106.828 14.688C106.444 15.008 106.012 15.168 105.468 15.168C104.316 15.168 103.372 14.288 103.356 12.912H108.524C108.556 12.032 108.316 11.008 107.9 10.416C107.5 9.84 106.684 9.2 105.388 9.2C103.388 9.2 102.172 10.736 102.172 12.72C102.172 15.184 103.852 16.192 105.452 16.192C106.3 16.192 107.052 15.92 107.66 15.376C107.996 15.072 108.284 14.672 108.476 14.304L107.516 13.776ZM103.436 11.952C103.612 10.96 104.412 10.224 105.388 10.224C106.364 10.224 107.148 10.912 107.34 11.952H103.436ZM110.291 4.336V16H111.443V4.336H110.291ZM118.506 15.072C119.002 15.712 119.754 16.192 120.826 16.192C122.842 16.192 124.01 14.544 124.01 12.72C124.01 10.928 122.858 9.2 120.778 9.2C120.298 9.2 119.29 9.312 118.506 10.288V9.36H117.354V19.68H118.506V15.072ZM120.666 15.168C119.306 15.168 118.442 14.064 118.442 12.704C118.442 11.104 119.578 10.224 120.65 10.224C121.722 10.224 122.826 11.088 122.826 12.72C122.826 14.048 122.01 15.168 120.666 15.168ZM130.864 10.304C130.56 9.904 129.872 9.2 128.592 9.2C126.896 9.2 125.36 10.384 125.36 12.672C125.36 15.008 126.912 16.192 128.592 16.192C129.76 16.192 130.48 15.568 130.864 15.072V16H132.016V9.36H130.864V10.304ZM128.72 10.224C129.744 10.224 130.928 10.976 130.928 12.688C130.928 14 130.128 15.168 128.72 15.168C127.344 15.168 126.544 14.096 126.544 12.672C126.544 11.056 127.584 10.224 128.72 10.224ZM134.197 16H135.349V12.496C135.349 11.408 135.541 10.96 135.733 10.704C135.909 10.48 136.197 10.288 136.661 10.288C136.837 10.288 137.077 10.336 137.333 10.512L137.877 9.472C137.589 9.328 137.205 9.2 136.853 9.2C135.957 9.2 135.461 9.904 135.349 10.08V9.36H134.197V16ZM143.676 10.304C143.372 9.904 142.684 9.2 141.404 9.2C139.708 9.2 138.172 10.384 138.172 12.672C138.172 15.008 139.724 16.192 141.404 16.192C142.572 16.192 143.292 15.568 143.676 15.072V16H144.828V9.36H143.676V10.304ZM141.532 10.224C142.556 10.224 143.74 10.976 143.74 12.688C143.74 14 142.94 15.168 141.532 15.168C140.156 15.168 139.356 14.096 139.356 12.672C139.356 11.056 140.396 10.224 141.532 10.224Z" fill="white"/>
<path d="M56.5 33.94H59.82C59.74 34.7 59.44 35.48 58.7 36.2C57.84 37.04 56.88 37.38 55.72 37.38C54.44 37.38 53.3 37.02 52.38 36.04C51.5 35.1 51 33.76 51 32.42C51 30.98 51.54 29.56 52.42 28.68C53.08 28.02 54.2 27.3 55.94 27.3C56.76 27.3 57.56 27.44 58.3 27.88C58.94 28.24 59.54 28.84 59.94 29.4L61.56 28.26C61.18 27.66 60.5 26.88 59.4 26.26C58.36 25.68 57.12 25.42 55.92 25.42C53.86 25.42 52.04 26.26 50.9 27.42C49.8 28.52 48.96 30.32 48.96 32.4C48.96 34.32 49.64 36.1 50.94 37.44C52.16 38.7 53.54 39.26 55.48 39.26C57 39.26 58.64 38.9 60.02 37.56C61.32 36.3 62 34.44 62 32.16V32.06H56.5V33.94ZM68.2609 30.36C65.7209 30.36 63.7609 32.2 63.7609 34.8C63.7609 37.38 65.7209 39.26 68.2609 39.26C70.8009 39.26 72.7609 37.38 72.7609 34.8C72.7609 32.2 70.8009 30.36 68.2609 30.36ZM68.2609 37.5C66.7209 37.5 65.7609 36.44 65.7609 34.82C65.7609 32.9 67.0209 32.12 68.2609 32.12C69.5009 32.12 70.7609 32.9 70.7609 34.82C70.7609 36.44 69.8009 37.5 68.2609 37.5ZM78.8664 30.36C76.3264 30.36 74.3664 32.2 74.3664 34.8C74.3664 37.38 76.3264 39.26 78.8664 39.26C81.4064 39.26 83.3664 37.38 83.3664 34.8C83.3664 32.2 81.4064 30.36 78.8664 30.36ZM78.8664 37.5C77.3264 37.5 76.3664 36.44 76.3664 34.82C76.3664 32.9 77.6264 32.12 78.8664 32.12C80.1064 32.12 81.3664 32.9 81.3664 34.82C81.3664 36.44 80.4064 37.5 78.8664 37.5ZM91.5719 31.5C90.8519 30.64 89.9119 30.36 89.0719 30.36C88.0519 30.36 87.0519 30.66 86.2119 31.52C85.5519 32.18 84.9719 33.24 84.9719 34.78C84.9719 36.18 85.4719 37.32 86.2319 38.12C87.0319 38.96 87.9319 39.26 89.0119 39.26C89.5719 39.26 90.6719 39.2 91.5719 38.06V39.16C91.5719 39.78 91.5719 40.66 90.9319 41.28C90.6919 41.52 90.2119 41.84 89.3919 41.84C88.5919 41.84 88.1119 41.52 87.8719 41.26C87.5719 40.94 87.3319 40.4 87.2519 39.94H85.3519C85.4919 40.96 85.9719 41.94 86.5919 42.56C87.3919 43.36 88.3719 43.6 89.3519 43.6C90.7319 43.6 91.6119 43.14 92.1519 42.7C93.3119 41.72 93.5319 40.3 93.5319 38.32V30.58H91.5719V31.5ZM89.3119 32.12C89.8719 32.12 90.4119 32.24 90.8919 32.72C91.3919 33.2 91.6919 33.9 91.6919 34.84C91.6919 35.48 91.5319 36.2 90.9519 36.82C90.4719 37.32 89.9319 37.5 89.3119 37.5C88.7119 37.5 88.1719 37.26 87.8119 36.94C87.2919 36.48 86.9719 35.66 86.9719 34.82C86.9719 33.92 87.3319 33.14 87.8319 32.68C88.2719 32.26 88.7719 32.12 89.3119 32.12ZM96.0173 24.42V39H97.9773V24.42H96.0173ZM106.351 36.16C106.171 36.48 105.911 36.82 105.571 37.08C105.171 37.38 104.771 37.5 104.231 37.5C103.751 37.5 103.191 37.42 102.731 36.96C102.311 36.54 102.051 35.86 102.011 35.26H108.051V35.02C108.051 34.14 107.951 32.58 106.871 31.46C106.371 30.94 105.511 30.36 104.171 30.36C102.971 30.36 102.051 30.8 101.351 31.5C100.471 32.4 100.011 33.66 100.011 34.96C100.011 36.22 100.451 37.38 101.251 38.18C102.051 38.98 102.971 39.26 104.091 39.26C104.991 39.26 105.891 39.06 106.571 38.62C107.111 38.28 107.631 37.72 107.991 37.08L106.351 36.16ZM102.151 33.66C102.251 33.24 102.471 32.84 102.751 32.58C103.011 32.32 103.451 32.04 104.131 32.04C104.771 32.04 105.191 32.28 105.451 32.52C105.751 32.8 105.971 33.2 106.051 33.66H102.151ZM115.127 25.66V39H117.167V33.58H118.087C119.067 33.58 120.287 33.44 121.347 32.54C122.447 31.6 122.647 30.4 122.647 29.62C122.647 28.4 122.107 27.12 120.987 26.38C120.027 25.74 118.887 25.66 118.067 25.66H115.127ZM117.167 27.54H118.067C120.387 27.54 120.687 28.86 120.687 29.6C120.687 30.84 119.847 31.7 118.087 31.7H117.167V27.54ZM124.377 24.42V39H126.337V24.42H124.377ZM134.97 31.56C134.17 30.52 133.09 30.36 132.47 30.36C130.25 30.36 128.37 32.04 128.37 34.78C128.37 37.1 129.85 39.26 132.45 39.26C133.05 39.26 134.11 39.12 134.97 38.12V39H136.93V30.58H134.97V31.56ZM132.71 32.12C133.95 32.12 135.09 33 135.09 34.84C135.09 36.6 133.95 37.5 132.71 37.5C131.29 37.5 130.37 36.28 130.37 34.82C130.37 33.32 131.29 32.12 132.71 32.12ZM138.796 43.58H140.996L147.696 30.58H145.496L143.056 35.5L140.656 30.58H138.296L141.896 37.68L138.796 43.58Z" fill="white"/>
</svg>
