<svg width="23" height="21" viewBox="0 0 23 21" fill="none" xmlns="http://www.w3.org/2000/svg">
<path d="M5.67771 11.8491C6.61029 12.1234 7.32343 12.6446 7.81714 13.4126C8.36571 14.1257 8.64 15.0034 8.64 16.0457C8.64 17.3623 8.22857 18.432 7.40571 19.2549C6.58286 20.0777 5.568 20.4891 4.36114 20.4891C3.04457 20.4891 1.97486 20.0777 1.152 19.2549C0.384 18.3771 0 17.3074 0 16.0457C0 15.3874 0.0548571 14.7566 0.164571 14.1531C0.329143 13.4949 0.630857 12.5623 1.06971 11.3554L4.52571 0H8.47543L5.67771 11.8491ZM19.6663 11.8491C20.5989 12.1234 21.312 12.6446 21.8057 13.4126C22.3543 14.1257 22.6286 15.0034 22.6286 16.0457C22.6286 17.3623 22.2171 18.432 21.3943 19.2549C20.5714 20.0777 19.5566 20.4891 18.3497 20.4891C17.0331 20.4891 15.9634 20.0777 15.1406 19.2549C14.3726 18.3771 13.9886 17.3074 13.9886 16.0457C13.9886 15.3874 14.0434 14.7566 14.1531 14.1531C14.3177 13.4949 14.6194 12.5623 15.0583 11.3554L18.5143 0H22.464L19.6663 11.8491Z" fill="white"/>
</svg>
